Patient4_TMGait_0pt7_02_right_46_EMG.mot
version=1
nRows=20
nColumns=33
inDegrees=no
endheader
time	1LAddLong	2LGlutMax	3LGlutMed	4LIliopsoas	5LSemiMemb	6LBicFemLong	7LRecFem	8LVastMed	9LVastLat	10LGasMed	11LTibAnt	12lTibPost	13LPeroneusLong	14LSol	15LExtDigLong	16LFlexDigLong	17RAddLong	18RGlutMax	19RGlutMed	20RIliopsoas	21RSemiMemb	22RBicFemLong	23RRecFem	24RVastMed	25RVastLat	26RGasMed	27RTibAnt	28RTibPost	29RPeroneusLong	30RSol	31RExtDigLong	32RFlexDigLong
52.475	0.020447	0.38956	0.31265	0.009308	-0.00061	-0.030975	0.29846	0.018005	0.14343	-0.055847	-0.012054	0.013885	-0.12878	0.000305	0.069733	0.01709	-0.04303	-1.7491	-1.264	0.072937	0.07019	-0.18814	0.35416	0.083923	-0.41596	0.10208	-0.010529	-0.03006	0.45563	0.16983	-0.002899	-0.006104
52.476	0.000153	0.38422	0.21255	0.040131	-0.005188	-0.018616	0.27817	0.021362	0.13596	-0.061951	-0.1207	0.012817	-0.12497	0.050659	0.069275	0.014954	-0.006714	-2.0375	-1.1488	0.11627	0.37933	-0.67673	0.26276	0.021515	-0.18601	0.080109	0.032196	-0.053558	0.6868	0.2536	-0.005341	-0.019684
52.477	0.0177	0.47089	0.15823	0.043488	-0.002899	-0.027618	0.26901	0.011597	0.13123	-0.066376	-0.11276	0.013733	-0.1384	0.11276	0.0914	0.042572	0.067139	-2.2722	-1.1555	0.15198	0.066071	-1.0233	0.3508	-0.12436	-0.12909	-0.00946	0.088501	-0.29617	0.49072	0.33829	0.000458	-0.0177
52.478	0.020752	0.50079	0.15503	0.058289	0.010834	-0.052948	0.23743	0.004578	0.12528	-0.063629	-0.056915	0.015259	-0.1471	0.097046	0.11475	0.035248	0.073395	-2.4167	-1.2695	0.089569	-0.32211	-1.0893	0.42221	-0.11215	0.011597	-0.03006	0.12451	-0.10742	0.56412	-0.00473	-0.003662	-0.023346
52.479	0.022125	0.50629	0.15839	0.01358	0.009003	-0.058899	0.25467	0.014954	0.13229	-0.029755	-0.013123	0.01358	-0.12192	0.084686	0.1358	0.049133	-0.015259	-2.6207	-0.5397	0.050812	-0.74402	-0.85754	0.40192	-0.08255	0.010376	0.000916	0.11749	0.17578	0.53345	-0.4599	-0.001068	-0.010834
52.48	0.001678	0.52887	0.20416	-0.015411	0.003967	-0.043488	0.2945	0.020905	0.12543	0.005493	-0.034027	0.012665	-0.1004	0.071564	0.14908	0.032806	-0.12726	-2.7504	-0.78507	0.031891	-0.34729	-0.41641	0.3363	0.18539	-0.11459	0.053711	0.092773	0.089722	-0.029144	-0.55756	-0.003357	-0.019073
52.481	-0.001984	0.52734	0.17425	-0.013733	0.00061	-0.066223	0.29419	0.009155	0.11612	0.019836	-0.085297	0.011749	-0.11581	0.048523	0.1181	0.029755	-0.19867	-2.8082	-1.0794	0.00473	0.083771	-0.096893	0.24551	0.36041	-0.24185	0.043488	0.29739	0.026855	-0.75134	-0.088959	-0.007172	-0.020142
52.482	0.007935	0.50064	0.17273	-0.023499	0.004272	-0.053406	0.31082	0.011902	0.11826	-0.01358	-0.14496	0.010681	-0.112	0.074615	0.059357	0.02655	-0.12802	-2.8387	-1.5289	-0.049896	0.82001	-0.090027	0.33676	0.25543	-0.4425	-0.065613	0.44968	-0.001984	-1.4171	0.16449	-0.001221	-0.022888
52.483	0.017853	0.53863	0.19073	-0.017548	-0.005035	-0.032501	0.30701	0.009155	0.11688	-0.083466	-0.13351	0.010681	-0.089111	0.090637	0.046539	0.019684	-0.088501	-2.8152	-1.6702	-0.032654	0.86014	-0.24597	0.39093	0.22873	-0.58243	-0.084229	0.26428	-0.006866	0.97611	-0.091553	-0.003815	-0.015106
52.484	-0.004425	0.52445	0.19638	0.006104	0.002747	-0.007324	0.3122	0.007477	0.13245	-0.096893	-0.053253	0.009918	-0.086365	0.098267	0.075684	0.018005	-0.039063	-2.8191	-1.528	-0.017395	0.24918	-0.23651	0.4715	0.16998	-0.58518	-0.10147	-0.088806	-0.006714	2.8621	-0.36057	-0.00946	-0.009613
52.485	-0.022736	0.54108	0.22217	0.021667	0.01358	0.020752	0.3183	0.01297	0.11322	-0.1471	0.065918	0.005035	-0.10468	0.11032	0.10925	0.008392	-0.029297	-2.7216	-1.3406	-0.024872	-0.098114	0.026093	0.46951	0.11826	-0.36087	-0.054932	-0.00946	0.011597	1.4244	-0.53589	-0.006409	-0.011444
52.486	-0.005951	0.51834	0.18707	-0.007782	0.018768	0.052643	0.34576	0.004425	0.11551	-0.13321	0.11917	0.008545	-0.10696	0.11643	0.10315	0.014496	-0.022583	-2.7829	-1.4084	0.011292	-0.23697	0.01236	0.42938	0.01709	-0.27222	-0.046997	0.18524	0.02121	-0.55039	-0.37705	-0.006104	-0.005341
52.487	-0.007019	0.49728	0.16113	-0.007324	0.018463	0.070038	0.3096	0.016327	0.10544	-0.07843	0.38422	0.005646	-0.1831	0.10071	0.009155	-0.001831	-0.011902	-2.7934	-0.58868	0.022125	-0.3569	-0.067902	0.37125	-0.019989	-0.19073	0.047302	-0.009613	-0.012054	-0.26077	-0.16876	-0.001068	-0.010071
52.488	-0.008545	0.52658	0.17471	0.003815	0.014191	0.034637	0.30334	0.016022	0.089569	-0.038757	0.52536	0.004272	-0.23148	0.11108	0.578	-0.003052	-0.022583	-2.8635	-0.004425	0.00824	-0.099792	-0.15762	0.40543	0.013885	-0.13779	0.099182	-0.20004	-0.009918	-0.20432	-0.24658	0.000458	-0.013733
52.489	-0.012817	0.56442	0.16022	0.034485	0.017395	-0.011749	0.29892	0.015106	0.096283	-0.059967	0.29602	0.007782	-0.12116	0.15945	0.51361	0.002441	0.018158	-3.027	-0.22873	-0.026245	0.032654	-0.18341	0.43304	0.041656	-0.082092	-0.009766	0.023041	-0.025635	-1.0176	-0.17227	-0.004272	-0.018616
52.49	-0.031128	0.57175	0.13565	0.022125	0.023346	-0.020447	0.31479	0.018768	0.095978	-0.080414	-0.19012	0.001678	-0.021057	0.19592	1.0399	-0.007935	0.003815	-2.9921	-0.57205	-0.10925	0.17578	0.024109	0.27222	0.18982	-0.06073	-0.11444	0.18204	-0.034485	-1.9078	0.01297	0.000305	-0.029297
52.491	-0.029602	0.61233	0.14511	-0.038757	0.020905	-0.020599	0.31372	0.016632	0.077515	-0.096893	-0.15228	0.000763	-0.015717	0.22247	0.034485	-0.006714	-0.038452	-3.056	-0.86655	-0.16724	0.41687	0.43793	0.1535	0.24887	-0.030975	-0.15747	0.04776	-0.028076	-0.18524	-0.041199	-0.002594	-0.026245
52.492	-0.014496	0.62836	0.15701	-0.052185	0.020905	0.007629	0.3212	0.014496	0.059204	-0.095825	-0.25955	-0.002594	-0.019073	0.24948	-0.25253	0.018463	-0.059357	-3.0951	-1.4655	-0.12421	0.27069	0.46692	0.16815	0.12894	-0.058136	-0.18051	0.043335	-0.01709	-0.088806	-0.11444	-0.002136	-0.028687
52.493	-0.014343	0.63492	0.10361	-0.028839	0.017853	0.005493	0.3122	0.011292	0.052185	-0.086975	-0.20035	0.001221	-0.039368	0.25207	-0.4068	0.001068	-0.082397	-3.5254	-2.5455	-0.033417	0.29785	0.48508	0.20126	0.041199	-0.13504	-0.076904	0.24612	-0.034943	0.31311	0.13138	-0.002441	-0.03006
52.494	-0.00351	0.62668	0.059967	0.014801	0.027008	0.005188	0.31403	0.004425	0.050659	-0.089874	-0.061646	-0.000153	0.006409	0.19608	-0.84854	-0.002289	-0.054016	-3.6743	-2.3764	0.014801	0.29373	0.30075	0.28702	0.005188	-0.17731	-0.006714	0.18799	-0.028229	2.4495	0.24796	-0.002899	-0.025635
